<?xml version="1.0" encoding="UTF-8" standalone="no"?>
<!-- Created with Inkscape (http://www.inkscape.org/) -->

<svg
   xmlns:dc="http://purl.org/dc/elements/1.1/"
   xmlns:cc="http://creativecommons.org/ns#"
   xmlns:rdf="http://www.w3.org/1999/02/22-rdf-syntax-ns#"
   xmlns:svg="http://www.w3.org/2000/svg"
   xmlns="http://www.w3.org/2000/svg"
   xmlns:sodipodi="http://sodipodi.sourceforge.net/DTD/sodipodi-0.dtd"
   xmlns:inkscape="http://www.inkscape.org/namespaces/inkscape"
   width="210mm"
   height="297mm"
   viewBox="0 0 210 297"
   version="1.1"
   id="svg8"
   inkscape:version="0.92.4 (5da689c313, 2019-01-14)"
   sodipodi:docname="logo.svg"
   inkscape:export-filename="/home/maarten/keyn/logo.svg.png"
   inkscape:export-xdpi="96"
   inkscape:export-ydpi="96">
  <defs
     id="defs2">
    <inkscape:path-effect
       effect="skeletal"
       id="path-effect3811"
       is_visible="true"
       pattern="M 0,5 C 0,2.24 2.24,0 5,0 7.76,0 10,2.24 10,5 10,7.76 7.76,10 5,10 2.24,10 0,7.76 0,5 Z"
       copytype="single_stretched"
       prop_scale="0.26458333"
       scale_y_rel="false"
       spacing="0"
       normal_offset="0"
       tang_offset="0"
       prop_units="false"
       vertical_pattern="false"
       fuse_tolerance="0" />
    <inkscape:path-effect
       effect="bspline"
       id="path-effect3809"
       is_visible="true"
       weight="33.333333"
       steps="2"
       helper_size="0"
       apply_no_weight="true"
       apply_with_weight="true"
       only_selected="false" />
    <inkscape:path-effect
       effect="skeletal"
       id="path-effect3805"
       is_visible="true"
       pattern="M 0,5 C 0,2.24 2.24,0 5,0 7.76,0 10,2.24 10,5 10,7.76 7.76,10 5,10 2.24,10 0,7.76 0,5 Z"
       copytype="single_stretched"
       prop_scale="0.26458333"
       scale_y_rel="false"
       spacing="0"
       normal_offset="0"
       tang_offset="0"
       prop_units="false"
       vertical_pattern="false"
       fuse_tolerance="0" />
    <inkscape:path-effect
       effect="bspline"
       id="path-effect3803"
       is_visible="true"
       weight="33.333333"
       steps="2"
       helper_size="0"
       apply_no_weight="true"
       apply_with_weight="true"
       only_selected="false" />
    <inkscape:path-effect
       effect="skeletal"
       id="path-effect3783"
       is_visible="true"
       pattern="M 0,5 C 0,2.24 2.24,0 5,0 7.76,0 10,2.24 10,5 10,7.76 7.76,10 5,10 2.24,10 0,7.76 0,5 Z"
       copytype="single_stretched"
       prop_scale="0.26458333"
       scale_y_rel="false"
       spacing="0"
       normal_offset="0"
       tang_offset="0"
       prop_units="false"
       vertical_pattern="false"
       fuse_tolerance="0" />
    <inkscape:path-effect
       effect="bspline"
       id="path-effect3781"
       is_visible="true"
       weight="33.333333"
       steps="2"
       helper_size="0"
       apply_no_weight="true"
       apply_with_weight="true"
       only_selected="false" />
    <inkscape:path-effect
       effect="skeletal"
       id="path-effect3777"
       is_visible="true"
       pattern="M 0,5 C 0,2.24 2.24,0 5,0 7.76,0 10,2.24 10,5 10,7.76 7.76,10 5,10 2.24,10 0,7.76 0,5 Z"
       copytype="single_stretched"
       prop_scale="0.26458333"
       scale_y_rel="false"
       spacing="0"
       normal_offset="0"
       tang_offset="0"
       prop_units="false"
       vertical_pattern="false"
       fuse_tolerance="0" />
    <inkscape:path-effect
       effect="bspline"
       id="path-effect3775"
       is_visible="true"
       weight="33.333333"
       steps="2"
       helper_size="0"
       apply_no_weight="true"
       apply_with_weight="true"
       only_selected="false" />
  </defs>
  <sodipodi:namedview
     id="base"
     pagecolor="#ffffff"
     bordercolor="#666666"
     borderopacity="1.0"
     inkscape:pageopacity="0.0"
     inkscape:pageshadow="2"
     inkscape:zoom="1.4"
     inkscape:cx="165.00722"
     inkscape:cy="627.94785"
     inkscape:document-units="mm"
     inkscape:current-layer="layer1"
     showgrid="false"
     inkscape:window-width="1920"
     inkscape:window-height="1016"
     inkscape:window-x="0"
     inkscape:window-y="27"
     inkscape:window-maximized="1" />
  <metadata
     id="metadata5">
    <rdf:RDF>
      <cc:Work
         rdf:about="">
        <dc:format>image/svg+xml</dc:format>
        <dc:type
           rdf:resource="http://purl.org/dc/dcmitype/StillImage" />
        <dc:title></dc:title>
      </cc:Work>
    </rdf:RDF>
  </metadata>
  <g
     inkscape:label="Layer 1"
     inkscape:groupmode="layer"
     id="layer1">
    <path
       style="fill:#000000;stroke:none;stroke-width:0.26458332px;stroke-linecap:butt;stroke-linejoin:miter;stroke-opacity:1"
       d="m 0,197 c -0.14859455,-0.25737 3.9384636,-2.8368 10.998277,-7.18877 6.201017,-3.82258 17.95632,-10.94421 27.974049,-18.78062 4.406685,-3.45401 9.14268,-7.47688 12.786252,-12.33122 2.533884,-3.42443 4.728408,-7.49517 4.679424,-11.70617 0,0 -9.5e-5,-0.008 -9.5e-5,-0.008 0.0067,-1.95651 -0.459691,-3.91902 -1.196077,-5.7534 -0.857173,-2.13222 -2.100778,-4.11642 -3.483067,-5.95798 -3.643481,-4.85239 -8.379518,-8.87289 -12.786137,-12.32461 C 28.954621,115.11781 17.199152,108.00216 10.998261,104.18289 3.9384861,99.834604 -0.14848869,97.257398 -7.351493e-6,96.999994 0.12100799,96.790204 4.4556866,98.928039 11.73367,102.91836 c 6.607252,3.62259 18.213018,10.16247 28.714798,18.11232 4.535993,3.42692 9.460514,7.53817 13.386785,12.66875 1.496267,1.9547 2.862122,4.13018 3.849856,6.5401 0.856656,2.08766 1.39196,4.37975 1.398632,6.74581 0,0 -1e-4,0.01 -1e-4,0.01 -0.05481,5.08733 -2.447299,9.66493 -5.248209,13.27873 -3.926158,5.13246 -8.85053,9.2461 -13.386553,12.67535 -10.501466,7.95494 -22.107055,14.50061 -28.714631,18.12668 C 4.4560761,195.06968 0.12111573,197.20978 0,197 Z"
       id="path3773"
       inkscape:connector-curvature="0"
       inkscape:path-effect="#path-effect3775;#path-effect3777"
       inkscape:original-d="M 0,197 C 28.880498,180.32572 57.760732,163.65171 86.640701,146.97797 57.761047,130.31856 28.880498,113.65906 0,96.999998" />
    <path
       style="fill:#000000;stroke:none;stroke-width:0.26458332px;stroke-linecap:butt;stroke-linejoin:miter;stroke-opacity:1"
       d="m 150,197 c -0.078,0.13518 -8.52868,-3.85032 -21.6237,-11.79235 -5.17325,-3.13597 -11.83526,-7.34459 -17.91639,-12.4279 -3.97702,-3.30176 -8.39137,-7.44708 -11.043948,-12.8575 2e-6,0 -3e-6,0 -3e-6,0 -0.995172,-2.03743 -1.684025,-4.33918 -1.762195,-6.76512 -0.06003,-2.3612 0.497579,-4.72613 1.564082,-6.86459 1.262284,-2.51601 3.057374,-4.67954 5.043824,-6.60822 2.44842,-2.39043 5.17445,-4.46684 8.03958,-6.39723 0.14706,-0.0992 0.29445,-0.19797 0.44218,-0.29643 7.46763,-4.97746 15.51365,-8.88307 22.92471,-12.2355 0,0 0,0 0,0 17.23407,-7.80208 35.12781,-14.18265 45.78791,-17.8692 11.52765,-3.986576 18.44929,-6.14623 18.54396,-5.885965 0.11196,0.307815 -6.62203,2.993412 -17.99045,7.396545 -10.12878,3.923 -28.60703,10.95981 -45.28221,18.67323 0,10e-6 -1e-5,10e-6 -1e-5,10e-6 -7.3329,3.3946 -15.25607,7.27427 -22.51585,12.12153 -0.14377,0.096 -0.2872,0.1923 -0.43027,0.28893 -2.78294,1.88101 -5.38845,3.85159 -7.68397,6.08667 -1.85511,1.81698 -3.4866,3.73396 -4.55844,5.88613 -0.8944,1.78328 -1.37901,3.73717 -1.33388,5.64119 0.0303,1.97412 0.61578,3.94278 1.4612,5.75107 0,0 0,1e-5 0,1e-5 2.28112,4.89774 6.4501,8.87068 10.26898,12.20016 5.82129,5.04064 12.36072,9.38672 17.3882,12.65355 C 142.0997,191.99731 150.17146,196.70302 150,197 Z"
       id="path3779"
       inkscape:connector-curvature="0"
       inkscape:path-effect="#path-effect3781;#path-effect3783"
       inkscape:original-d="M 150,197 C 121.02263,180.26949 92.044995,163.53924 63.067099,146.80927 108.71179,130.20586 154.35596,113.60282 200,96.999998" />
    <path
       style="fill:#000000;stroke:none;stroke-width:0.26458332px;stroke-linecap:butt;stroke-linejoin:miter;stroke-opacity:1"
       d="m 0,197 c 0,-0.73025 33.6,-1.32292 75,-1.32292 41.4,0 75,0.59267 75,1.32292 0,0.73025 -33.6,1.32292 -75,1.32292 -41.4,0 -75,-0.59267 -75,-1.32292 z"
       id="path3801"
       inkscape:connector-curvature="0"
       inkscape:path-effect="#path-effect3803;#path-effect3805"
       inkscape:original-d="m 0,197 c 50.000264,-2.7e-4 100.00026,-2.7e-4 150,0" />
    <path
       style="fill:#000000;stroke:none;stroke-width:0.26458332px;stroke-linecap:butt;stroke-linejoin:miter;stroke-opacity:1"
       d="m 0,96.982165 c 0,-0.73025 44.781545,-1.322917 99.958805,-1.322917 55.177265,0 99.958805,0.592667 99.958805,1.322917 0,0.73025 -44.78154,1.322917 -99.958805,1.322917 C 44.781545,98.305082 0,97.712415 0,96.982165 Z"
       id="path3807"
       inkscape:connector-curvature="0"
       inkscape:path-effect="#path-effect3809;#path-effect3811"
       inkscape:original-d="m 0,96.982165 c 66.628329,-2.65e-4 133.27867,-2.65e-4 199.91761,0" />
  </g>
</svg>
