<?xml version="1.0" standalone="no"?>
<!DOCTYPE svg PUBLIC "-//W3C//DTD SVG 20010904//EN"
 "http://www.w3.org/TR/2001/REC-SVG-20010904/DTD/svg10.dtd">
<svg version="1.0" xmlns="http://www.w3.org/2000/svg"
 width="756.000000pt" height="756.000000pt" viewBox="0 0 756.000000 756.000000"
 preserveAspectRatio="xMidYMid meet">
<metadata>
Created by potrace 1.11, written by Peter Selinger 2001-2013
</metadata>
<g transform="translate(0.000000,756.000000) scale(0.100000,-0.100000)"
fill="#000000" stroke="none">
<path d="M1878 5715 c-2 -1 -282 -6 -623 -9 -607 -7 -746 -10 -1050 -21 -142
-5 -193 -9 -202 -18 -5 -6 155 -109 464 -300 138 -86 298 -187 355 -224 57
-38 107 -70 111 -72 19 -8 309 -210 412 -286 544 -405 785 -714 786 -1007 0
-189 -115 -401 -340 -626 -97 -98 -118 -117 -225 -206 -54 -45 -315 -243 -362
-274 -10 -7 -41 -28 -69 -48 -116 -83 -552 -364 -566 -364 -5 0 -9 -4 -9 -10
0 -5 -4 -10 -10 -10 -8 0 -166 -95 -290 -175 -219 -140 -260 -168 -257 -172
12 -11 53 -14 362 -28 635 -27 4143 -27 4940 0 142 5 301 14 325 18 31 5 22
23 -26 54 -27 18 -54 37 -61 42 -7 6 -14 11 -17 11 -5 0 -107 64 -149 93 -10
6 -58 37 -107 67 -216 134 -580 371 -680 443 -36 26 -76 55 -89 65 -212 150
-448 367 -557 512 -110 146 -159 276 -152 403 9 149 63 252 208 397 211 212
552 424 1075 670 198 93 577 260 590 260 8 0 16 4 19 9 3 4 27 16 53 26 26 10
66 26 88 35 22 10 92 39 155 64 63 26 125 51 138 56 31 14 55 24 147 60 44 17
89 35 100 40 11 6 49 21 85 34 59 21 209 79 470 181 201 78 477 188 525 209
28 13 65 28 83 36 41 16 36 21 -25 26 -133 12 -263 16 -1003 30 -251 5 -4617
14 -4622 9z"/>
</g>
</svg>
