<svg version="1" xmlns="http://www.w3.org/2000/svg" width="1008" height="1008" viewBox="0 0 756.000000 756.000000"><path d="M187.8 184.5c-.2.1-28.2.6-62.3.9-60.7.7-74.6 1-105 2.1-14.2.5-19.3.9-20.2 1.8-.5.6 15.5 10.9 46.4 30 13.8 8.6 29.8 18.7 35.5 22.4 5.7 3.8 10.7 7 11.1 7.2 1.9.8 30.9 21 41.2 28.6 54.4 40.5 78.5 71.4 78.6 100.7 0 18.9-11.5 40.1-34 62.6-9.7 9.8-11.8 11.7-22.5 20.6-5.4 4.5-31.5 24.3-36.2 27.4-1 .7-4.1 2.8-6.9 4.8-11.6 8.3-55.2 36.4-56.6 36.4-.5 0-.9.4-.9 1 0 .5-.4 1-1 1-.8 0-16.6 9.5-29 17.5-21.9 14-26 16.8-25.7 17.2 1.2 1.1 5.3 1.4 36.2 2.8 63.5 2.7 414.3 2.7 494 0 14.2-.5 30.1-1.4 32.5-1.8 3.1-.5 2.2-2.3-2.6-5.4-2.7-1.8-5.4-3.7-6.1-4.2-.7-.6-1.4-1.1-1.7-1.1-.5 0-10.7-6.4-14.9-9.3-1-.6-5.8-3.7-10.7-6.7-21.6-13.4-58-37.1-68-44.3-3.6-2.6-7.6-5.5-8.9-6.5-21.2-15-44.8-36.7-55.7-51.2-11-14.6-15.9-27.6-15.2-40.3.9-14.9 6.3-25.2 20.8-39.7 21.1-21.2 55.2-42.4 107.5-67 19.8-9.3 57.7-26 59-26 .8 0 1.6-.4 1.9-.9.3-.4 2.7-1.6 5.3-2.6 2.6-1 6.6-2.6 8.8-3.5 2.2-1 9.2-3.9 15.5-6.4 6.3-2.6 12.5-5.1 13.8-5.6 3.1-1.4 5.5-2.4 14.7-6 4.4-1.7 8.9-3.5 10-4 1.1-.6 4.9-2.1 8.5-3.4 5.9-2.1 20.9-7.9 47-18.1 20.1-7.8 47.7-18.8 52.5-20.9 2.8-1.3 6.5-2.8 8.3-3.6 4.1-1.6 3.6-2.1-2.5-2.6-13.3-1.2-26.3-1.6-100.3-3-25.1-.5-461.7-1.4-462.2-.9z"/></svg>